<svg xmlns="http://www.w3.org/2000/svg" width="1536" height="1024" viewBox="0 0 1536 1024">
  <defs>
    <marker id="arrow-blue" viewBox="0 0 10 10" refX="8.5" refY="5" markerWidth="8" markerHeight="8" orient="auto-start-reverse">
      <path d="M 0 0 L 10 5 L 0 10 z" fill="#1a63c7"/>
    </marker>
    <marker id="arrow-gray" viewBox="0 0 10 10" refX="8.5" refY="5" markerWidth="7" markerHeight="7" orient="auto-start-reverse">
      <path d="M 0 0 L 10 5 L 0 10 z" fill="#56687d"/>
    </marker>
    <marker id="arrow-green" viewBox="0 0 10 10" refX="8.5" refY="5" markerWidth="7" markerHeight="7" orient="auto-start-reverse">
      <path d="M 0 0 L 10 5 L 0 10 z" fill="#1f7f35"/>
    </marker>
    <filter id="soft-shadow" x="-6%" y="-6%" width="112%" height="112%">
      <feDropShadow dx="0" dy="1.2" stdDeviation="1.5" flood-color="#335" flood-opacity="0.10"/>
    </filter>
  </defs>
  <style>
    .font { font-family: Arial, Helvetica, "DejaVu Sans", sans-serif; }
    .mono { font-family: Menlo, Consolas, "Liberation Mono", monospace; }
    .cap { letter-spacing: .2px; }
  </style>
  <rect width="1536" height="1024" fill="#ffffff"/>
  <g class="font">

<text x="768.0" y="34.0" font-size="27.0" fill="#071225" font-weight="900" text-anchor="middle">Roadmap: Bottom-Up Programming Model Induction with LLMs</text>
<text x="768.0" y="58.0" font-size="14.0" fill="#071225" font-weight="400" text-anchor="middle">How to evolve a programming-model basis when the low-level target is known</text>
<rect x="29.0" y="73.0" width="286.0" height="347.0" rx="7.0" fill="#ffffff" stroke="#1f7f35" stroke-width="1.0"/>
<rect x="29.0" y="73.0" width="286.0" height="27.0" rx="7.0" fill="#edf8ee" stroke="#1f7f35" stroke-width="1.0"/>
<line x1="29.0" y1="100.0" x2="315.0" y2="100.0" stroke="#1f7f35" stroke-width="1.0" fill="none"/>
<text x="172.0" y="87.0" font-size="9.2" fill="#1f7f35" font-weight="900" text-anchor="middle"><tspan x="172.0" dy="0.0">1. Library and Abstraction</tspan><tspan x="172.0" dy="9.7">Induction</tspan></text>
<rect x="41.0" y="115.0" width="263.0" height="38.0" rx="4.0" fill="#f7fff8" stroke="#c9d8e8" stroke-width="0.9"/>
<text x="50.0" y="129.0" font-size="8.3" fill="#071225" font-weight="900" text-anchor="start"><tspan x="50.0" dy="0.0">DreamCoder</tspan></text>
<text x="50.0" y="146.0" font-size="7.2" fill="#111" font-weight="400" text-anchor="start"><tspan x="50.0" dy="0.0">extracts and reuses new abstractions in wake-</tspan><tspan x="50.0" dy="8.5">sleep loops</tspan></text>
<rect x="41.0" y="157.0" width="263.0" height="38.0" rx="4.0" fill="#f7fff8" stroke="#c9d8e8" stroke-width="0.9"/>
<text x="50.0" y="171.0" font-size="8.3" fill="#071225" font-weight="900" text-anchor="start"><tspan x="50.0" dy="0.0">LAPS</tspan></text>
<text x="50.0" y="188.0" font-size="7.2" fill="#111" font-weight="400" text-anchor="start"><tspan x="50.0" dy="0.0">natural language guides library learning and</tspan><tspan x="50.0" dy="8.5">heuristic search</tspan></text>
<rect x="41.0" y="199.0" width="263.0" height="38.0" rx="4.0" fill="#f7fff8" stroke="#c9d8e8" stroke-width="0.9"/>
<text x="50.0" y="213.0" font-size="8.3" fill="#071225" font-weight="900" text-anchor="start"><tspan x="50.0" dy="0.0">Stitch</tspan></text>
<text x="50.0" y="230.0" font-size="7.2" fill="#111" font-weight="400" text-anchor="start"><tspan x="50.0" dy="0.0">fast extraction of reusable functions/DSL</tspan><tspan x="50.0" dy="8.5">fragments</tspan></text>
<rect x="41.0" y="241.0" width="263.0" height="38.0" rx="4.0" fill="#f7fff8" stroke="#c9d8e8" stroke-width="0.9"/>
<text x="50.0" y="255.0" font-size="8.3" fill="#071225" font-weight="900" text-anchor="start"><tspan x="50.0" dy="0.0">LILO</tspan></text>
<text x="50.0" y="272.0" font-size="7.2" fill="#111" font-weight="400" text-anchor="start"><tspan x="50.0" dy="0.0">LLM + compression + abstraction documentation</tspan></text>
<rect x="41.0" y="283.0" width="263.0" height="38.0" rx="4.0" fill="#f7fff8" stroke="#c9d8e8" stroke-width="0.9"/>
<text x="50.0" y="297.0" font-size="8.3" fill="#071225" font-weight="900" text-anchor="start"><tspan x="50.0" dy="0.0">Babble</tspan></text>
<text x="50.0" y="314.0" font-size="7.2" fill="#111" font-weight="400" text-anchor="start"><tspan x="50.0" dy="0.0">e-graphs and equality saturation for modularity</tspan><tspan x="50.0" dy="8.5">motifs</tspan></text>
<rect x="41.0" y="325.0" width="263.0" height="38.0" rx="4.0" fill="#f7fff8" stroke="#c9d8e8" stroke-width="0.9"/>
<text x="50.0" y="339.0" font-size="8.3" fill="#071225" font-weight="900" text-anchor="start"><tspan x="50.0" dy="0.0">AbstractBeam</tspan></text>
<text x="50.0" y="356.0" font-size="7.2" fill="#111" font-weight="400" text-anchor="start"><tspan x="50.0" dy="0.0">adds frequent structures to the DSL, improves</tspan><tspan x="50.0" dy="8.5">syntax search</tspan></text>
<rect x="41.0" y="367.0" width="263.0" height="38.0" rx="4.0" fill="#f7fff8" stroke="#c9d8e8" stroke-width="0.9"/>
<text x="50.0" y="381.0" font-size="8.3" fill="#071225" font-weight="900" text-anchor="start"><tspan x="50.0" dy="0.0">Leroy</tspan></text>
<text x="50.0" y="398.0" font-size="7.2" fill="#111" font-weight="400" text-anchor="start"><tspan x="50.0" dy="0.0">library learning in imperative languages</tspan></text>
<rect x="1178.0" y="76.0" width="254.0" height="351.0" rx="7.0" fill="#ffffff" stroke="#0b4fb3" stroke-width="1.0"/>
<rect x="1178.0" y="76.0" width="254.0" height="27.0" rx="7.0" fill="#eef5ff" stroke="#0b4fb3" stroke-width="1.0"/>
<line x1="1178.0" y1="103.0" x2="1432.0" y2="103.0" stroke="#0b4fb3" stroke-width="1.0" fill="none"/>
<text x="1305.0" y="90.0" font-size="9.2" fill="#0b4fb3" font-weight="900" text-anchor="middle"><tspan x="1305.0" dy="0.0">2. Automatic DSL / Grammar</tspan><tspan x="1305.0" dy="9.7">Design</tspan></text>
<rect x="1188.0" y="116.0" width="234.0" height="34.0" rx="4.0" fill="#f8fbff" stroke="#c9d8e8" stroke-width="0.9"/>
<text x="1197.0" y="130.0" font-size="8.3" fill="#071225" font-weight="900" text-anchor="start"><tspan x="1197.0" dy="0.0">AutoDSL</tspan></text>
<text x="1197.0" y="147.0" font-size="7.2" fill="#111" font-weight="400" text-anchor="start"><tspan x="1197.0" dy="0.0">syntax-driven DSL design with semantic</tspan><tspan x="1197.0" dy="8.5">constraints</tspan></text>
<rect x="1188.0" y="154.0" width="234.0" height="34.0" rx="4.0" fill="#f8fbff" stroke="#c9d8e8" stroke-width="0.9"/>
<text x="1197.0" y="168.0" font-size="8.3" fill="#071225" font-weight="900" text-anchor="start"><tspan x="1197.0" dy="0.0">Grammar Prompting</tspan></text>
<text x="1197.0" y="185.0" font-size="7.2" fill="#111" font-weight="400" text-anchor="start"><tspan x="1197.0" dy="0.0">BNF grammars guide DSL generation</tspan></text>
<rect x="1188.0" y="192.0" width="234.0" height="34.0" rx="4.0" fill="#f8fbff" stroke="#c9d8e8" stroke-width="0.9"/>
<text x="1197.0" y="206.0" font-size="8.3" fill="#071225" font-weight="900" text-anchor="start"><tspan x="1197.0" dy="0.0">HYSYNTH</tspan></text>
<text x="1197.0" y="223.0" font-size="7.2" fill="#111" font-weight="400" text-anchor="start"><tspan x="1197.0" dy="0.0">LLM learns surrogate CFG model for</tspan><tspan x="1197.0" dy="8.5">synthesis</tspan></text>
<rect x="1188.0" y="230.0" width="234.0" height="34.0" rx="4.0" fill="#f8fbff" stroke="#c9d8e8" stroke-width="0.9"/>
<text x="1197.0" y="244.0" font-size="8.3" fill="#071225" font-weight="900" text-anchor="start"><tspan x="1197.0" dy="0.0">Text2DSL</tspan></text>
<text x="1197.0" y="261.0" font-size="7.2" fill="#111" font-weight="400" text-anchor="start"><tspan x="1197.0" dy="0.0">NL-to-DSL generation constrained by</tspan><tspan x="1197.0" dy="8.5">grammar/API</tspan></text>
<rect x="1188.0" y="268.0" width="234.0" height="34.0" rx="4.0" fill="#f8fbff" stroke="#c9d8e8" stroke-width="0.9"/>
<text x="1197.0" y="282.0" font-size="8.3" fill="#071225" font-weight="900" text-anchor="start"><tspan x="1197.0" dy="0.0">From Text to DSL</tspan></text>
<text x="1197.0" y="299.0" font-size="7.2" fill="#111" font-weight="400" text-anchor="start"><tspan x="1197.0" dy="0.0">DSL-model generation and</tspan><tspan x="1197.0" dy="8.5">validity/semantic scoring</tspan></text>
<rect x="1188.0" y="306.0" width="234.0" height="34.0" rx="4.0" fill="#f8fbff" stroke="#c9d8e8" stroke-width="0.9"/>
<text x="1197.0" y="320.0" font-size="8.3" fill="#071225" font-weight="900" text-anchor="start"><tspan x="1197.0" dy="0.0">HyGenar</tspan></text>
<text x="1197.0" y="337.0" font-size="7.2" fill="#111" font-weight="400" text-anchor="start"><tspan x="1197.0" dy="0.0">evolution for BNF grammar generation</tspan></text>
<rect x="1188.0" y="344.0" width="234.0" height="34.0" rx="4.0" fill="#f8fbff" stroke="#c9d8e8" stroke-width="0.9"/>
<text x="1197.0" y="358.0" font-size="8.3" fill="#071225" font-weight="900" text-anchor="start"><tspan x="1197.0" dy="0.0">Metamodel-Grammar Co-</tspan><tspan x="1197.0" dy="9.5">Evolution</tspan></text>
<text x="1197.0" y="375.0" font-size="7.2" fill="#111" font-weight="400" text-anchor="start"><tspan x="1197.0" dy="0.0">joint metamodel and grammar evolution</tspan></text>
<rect x="1188.0" y="382.0" width="234.0" height="34.0" rx="4.0" fill="#f8fbff" stroke="#c9d8e8" stroke-width="0.9"/>
<text x="1197.0" y="396.0" font-size="8.3" fill="#071225" font-weight="900" text-anchor="start"><tspan x="1197.0" dy="0.0">Anka</tspan></text>
<text x="1197.0" y="413.0" font-size="7.2" fill="#111" font-weight="400" text-anchor="start"><tspan x="1197.0" dy="0.0">DSL designed for reliable LLM generation</tspan></text>
<rect x="324.0" y="76.0" width="844.0" height="164.0" rx="7.0" fill="#ffffff" stroke="#56687d" stroke-width="1.0"/>
<rect x="324.0" y="76.0" width="844.0" height="27.0" rx="7.0" fill="#ffffff" stroke="#56687d" stroke-width="1.0"/>
<line x1="324.0" y1="103.0" x2="1168.0" y2="103.0" stroke="#56687d" stroke-width="1.0" fill="none"/>
<text x="746.0" y="95.0" font-size="13.0" fill="#56687d" font-weight="900" text-anchor="middle"><tspan x="746.0" dy="0.0">General Programming-Model Evolution Loop</tspan></text>
<ellipse cx="388.0" cy="130.0" rx="13.7" ry="5.0" fill="#eef3fb" stroke="#56687d" stroke-width="1.2"/>
<rect x="374.3" y="130.0" width="27.4" height="22.0" rx="0.0" fill="#eef3fb" stroke="#56687d" stroke-width="1.2"/>
<ellipse cx="388.0" cy="130.0" rx="13.7" ry="5.0" fill="none" stroke="#56687d" stroke-width="1.2"/>
<ellipse cx="388.0" cy="139.3" rx="13.7" ry="5.0" fill="none" stroke="#56687d" stroke-width="1.2"/>
<ellipse cx="388.0" cy="152.0" rx="13.7" ry="5.0" fill="none" stroke="#56687d" stroke-width="1.2"/>
<text x="388.0" y="179.0" font-size="7.3" fill="#111" font-weight="400" text-anchor="middle"><tspan x="388.0" dy="0.0">Program corpus</tspan><tspan x="388.0" dy="8.4">profiles, traces</tspan></text>
<line x1="413.0" y1="140.0" x2="460.0" y2="140.0" stroke="#56687d" stroke-width="1.6" fill="none" marker-end="url(#arrow-gray)"/>
<circle cx="488.0" cy="140.0" r="13.7" fill="none" stroke="#56687d" stroke-width="1.6"/>
<line x1="488.0" y1="140.0" x2="488.0" y2="132.8" stroke="#56687d" stroke-width="1.4" fill="none"/>
<line x1="488.0" y1="140.0" x2="494.5" y2="142.9" stroke="#56687d" stroke-width="1.4" fill="none"/>
<line x1="498.0" y1="140.0" x2="500.0" y2="140.0" stroke="#56687d" stroke-width="1.0" fill="none"/>
<line x1="495.1" y1="147.1" x2="496.5" y2="148.5" stroke="#56687d" stroke-width="1.0" fill="none"/>
<line x1="488.0" y1="150.0" x2="488.0" y2="152.0" stroke="#56687d" stroke-width="1.0" fill="none"/>
<line x1="480.9" y1="147.1" x2="479.5" y2="148.5" stroke="#56687d" stroke-width="1.0" fill="none"/>
<line x1="478.0" y1="140.0" x2="476.0" y2="140.0" stroke="#56687d" stroke-width="1.0" fill="none"/>
<line x1="480.9" y1="132.9" x2="479.5" y2="131.5" stroke="#56687d" stroke-width="1.0" fill="none"/>
<line x1="488.0" y1="130.0" x2="488.0" y2="128.0" stroke="#56687d" stroke-width="1.0" fill="none"/>
<line x1="495.1" y1="132.9" x2="496.5" y2="131.5" stroke="#56687d" stroke-width="1.0" fill="none"/>
<text x="488.0" y="179.0" font-size="7.3" fill="#111" font-weight="400" text-anchor="middle"><tspan x="488.0" dy="0.0">Analyze and</tspan><tspan x="488.0" dy="8.4">extract patterns</tspan></text>
<line x1="513.0" y1="140.0" x2="560.0" y2="140.0" stroke="#56687d" stroke-width="1.6" fill="none" marker-end="url(#arrow-gray)"/>
<path d="M 588.0 125.0 L 593.0 138.0 L 603.0 140.0 L 593.0 142.0 L 588.0 155.0 L 583.0 142.0 L 573.0 140.0 L 583.0 138.0 Z" stroke="#56687d" stroke-width="1.2" fill="#fffaf0"/>
<text x="588.0" y="179.0" font-size="7.3" fill="#111" font-weight="400" text-anchor="middle"><tspan x="588.0" dy="0.0">Candidate</tspan><tspan x="588.0" dy="8.4">abstractions</tspan></text>
<line x1="613.0" y1="140.0" x2="660.0" y2="140.0" stroke="#56687d" stroke-width="1.6" fill="none" marker-end="url(#arrow-gray)"/>
<rect x="677.0" y="126.0" width="24.0" height="29.0" rx="2.0" fill="none" stroke="#56687d" stroke-width="1.4"/>
<path d="M 695.0 126.0 v 8 h 8" stroke="#56687d" stroke-width="1.2" fill="none"/>
<line x1="681.0" y1="136.0" x2="697.0" y2="136.0" stroke="#56687d" stroke-width="1.1" fill="none"/>
<line x1="681.0" y1="142.0" x2="697.0" y2="142.0" stroke="#56687d" stroke-width="1.1" fill="none"/>
<line x1="681.0" y1="148.0" x2="697.0" y2="148.0" stroke="#56687d" stroke-width="1.1" fill="none"/>
<text x="688.0" y="179.0" font-size="7.3" fill="#111" font-weight="400" text-anchor="middle"><tspan x="688.0" dy="0.0">LLM names,</tspan><tspan x="688.0" dy="8.4">docs, examples</tspan></text>
<line x1="713.0" y1="140.0" x2="760.0" y2="140.0" stroke="#56687d" stroke-width="1.6" fill="none" marker-end="url(#arrow-gray)"/>
<rect x="773.0" y="128.0" width="30.0" height="24.0" rx="3.0" fill="none" stroke="#56687d" stroke-width="1.4"/>
<text x="788.0" y="144.7" font-size="10.8" fill="#56687d" font-weight="800" text-anchor="middle" font-family="Menlo">&lt;/&gt;</text>
<text x="788.0" y="179.0" font-size="7.3" fill="#111" font-weight="400" text-anchor="middle"><tspan x="788.0" dy="0.0">Formalize</tspan><tspan x="788.0" dy="8.4">IR/DSL</tspan></text>
<line x1="813.0" y1="140.0" x2="860.0" y2="140.0" stroke="#56687d" stroke-width="1.6" fill="none" marker-end="url(#arrow-gray)"/>
<circle cx="888.0" cy="140.0" r="13.7" fill="none" stroke="#56687d" stroke-width="1.6"/>
<line x1="888.0" y1="140.0" x2="888.0" y2="132.8" stroke="#56687d" stroke-width="1.4" fill="none"/>
<line x1="888.0" y1="140.0" x2="894.5" y2="142.9" stroke="#56687d" stroke-width="1.4" fill="none"/>
<line x1="898.0" y1="140.0" x2="900.0" y2="140.0" stroke="#56687d" stroke-width="1.0" fill="none"/>
<line x1="895.1" y1="147.1" x2="896.5" y2="148.5" stroke="#56687d" stroke-width="1.0" fill="none"/>
<line x1="888.0" y1="150.0" x2="888.0" y2="152.0" stroke="#56687d" stroke-width="1.0" fill="none"/>
<line x1="880.9" y1="147.1" x2="879.5" y2="148.5" stroke="#56687d" stroke-width="1.0" fill="none"/>
<line x1="878.0" y1="140.0" x2="876.0" y2="140.0" stroke="#56687d" stroke-width="1.0" fill="none"/>
<line x1="880.9" y1="132.9" x2="879.5" y2="131.5" stroke="#56687d" stroke-width="1.0" fill="none"/>
<line x1="888.0" y1="130.0" x2="888.0" y2="128.0" stroke="#56687d" stroke-width="1.0" fill="none"/>
<line x1="895.1" y1="132.9" x2="896.5" y2="131.5" stroke="#56687d" stroke-width="1.0" fill="none"/>
<text x="888.0" y="179.0" font-size="7.3" fill="#111" font-weight="400" text-anchor="middle"><tspan x="888.0" dy="0.0">Lower to</tspan><tspan x="888.0" dy="8.4">target</tspan></text>
<line x1="913.0" y1="140.0" x2="960.0" y2="140.0" stroke="#56687d" stroke-width="1.6" fill="none" marker-end="url(#arrow-gray)"/>
<line x1="976.0" y1="152.0" x2="1002.0" y2="152.0" stroke="#56687d" stroke-width="1.3" fill="none"/>
<rect x="979.0" y="142.0" width="5.0" height="9.0" rx="1.0" fill="none" stroke="#56687d" stroke-width="1.2"/>
<rect x="987.0" y="135.0" width="5.0" height="16.0" rx="1.0" fill="none" stroke="#56687d" stroke-width="1.2"/>
<rect x="995.0" y="127.0" width="5.0" height="24.0" rx="1.0" fill="none" stroke="#56687d" stroke-width="1.2"/>
<path d="M 977.0 143.0 C 985.0 135.0, 989.0 135.0, 1001.0 130.0" stroke="#56687d" stroke-width="1.4" fill="none"/>
<text x="988.0" y="179.0" font-size="7.3" fill="#111" font-weight="400" text-anchor="middle"><tspan x="988.0" dy="0.0">Compile,</tspan><tspan x="988.0" dy="8.4">test, profile</tspan></text>
<line x1="1013.0" y1="140.0" x2="1060.0" y2="140.0" stroke="#56687d" stroke-width="1.6" fill="none" marker-end="url(#arrow-gray)"/>
<line x1="1097.0" y1="140.0" x2="1101.0" y2="140.0" stroke="#56687d" stroke-width="1.6" fill="none"/>
<line x1="1094.4" y1="146.4" x2="1097.2" y2="149.2" stroke="#56687d" stroke-width="1.6" fill="none"/>
<line x1="1088.0" y1="149.0" x2="1088.0" y2="153.0" stroke="#56687d" stroke-width="1.6" fill="none"/>
<line x1="1081.6" y1="146.4" x2="1078.8" y2="149.2" stroke="#56687d" stroke-width="1.6" fill="none"/>
<line x1="1079.0" y1="140.0" x2="1075.0" y2="140.0" stroke="#56687d" stroke-width="1.6" fill="none"/>
<line x1="1081.6" y1="133.6" x2="1078.8" y2="130.8" stroke="#56687d" stroke-width="1.6" fill="none"/>
<line x1="1088.0" y1="131.0" x2="1088.0" y2="127.0" stroke="#56687d" stroke-width="1.6" fill="none"/>
<line x1="1094.4" y1="133.6" x2="1097.2" y2="130.8" stroke="#56687d" stroke-width="1.6" fill="none"/>
<circle cx="1088.0" cy="140.0" r="9.5" fill="none" stroke="#56687d" stroke-width="1.6"/>
<circle cx="1088.0" cy="140.0" r="3.4" fill="none" stroke="#56687d" stroke-width="1.4"/>
<text x="1088.0" y="179.0" font-size="7.3" fill="#111" font-weight="400" text-anchor="middle"><tspan x="1088.0" dy="0.0">Accept / reject</tspan><tspan x="1088.0" dy="8.4">and iterate</tspan></text>
<rect x="545.0" y="264.0" width="400.0" height="288.0" rx="9.0" fill="#fffaff" stroke="#6b37b2" stroke-width="1.2"/>
<text x="745.0" y="321.0" font-size="18.0" fill="#6b37b2" font-weight="900" text-anchor="middle">Goal</text>
<text x="745.0" y="363.0" font-size="13.0" fill="#111" font-weight="500" text-anchor="middle"><tspan x="745.0" dy="0.0">Given a known low-level target:</tspan><tspan x="745.0" dy="19.0">ISA / AscendC / LLVM / MLIR / API / runtime blocks</tspan><tspan x="745.0" dy="19.0"></tspan><tspan x="745.0" dy="19.0">Induce and evolve a programming model M:</tspan><tspan x="745.0" dy="19.0">primitives, combinators, types, contracts,</tspan><tspan x="745.0" dy="19.0">resource/effect semantics, lowering rules,</tspan><tspan x="745.0" dy="19.0">verifiers, examples, docs, and cost model.</tspan><tspan x="745.0" dy="19.0"></tspan><tspan x="745.0" dy="19.0">M is accepted only when it improves synthesis,</tspan><tspan x="745.0" dy="19.0">optimization, verification, interpretability,</tspan><tspan x="745.0" dy="19.0">or productivity over direct target programming.</tspan></text>
<path d="M 420 240 V 290 H 545" stroke="#1a63c7" stroke-width="1.1" fill="none" stroke-dasharray="2 4" marker-end="url(#arrow-blue)"/>
<path d="M 1110 240 V 289 H 945" stroke="#1a63c7" stroke-width="1.1" fill="none" stroke-dasharray="2 4" marker-end="url(#arrow-blue)"/>
<path d="M 315 270 H 374 V 380 H 545" stroke="#1a63c7" stroke-width="1.1" fill="none" stroke-dasharray="2 4" marker-end="url(#arrow-blue)"/>
<path d="M 1178 347 H 1100 V 396 H 945" stroke="#1a63c7" stroke-width="1.1" fill="none" stroke-dasharray="2 4" marker-end="url(#arrow-blue)"/>
<rect x="394.0" y="585.0" width="674.0" height="130.0" rx="7.0" fill="#ffffff" stroke="#56687d" stroke-width="1.0"/>
<rect x="394.0" y="585.0" width="674.0" height="27.0" rx="7.0" fill="#ffffff" stroke="#56687d" stroke-width="1.0"/>
<line x1="394.0" y1="612.0" x2="1068.0" y2="612.0" stroke="#56687d" stroke-width="1.0" fill="none"/>
<text x="731.0" y="604.0" font-size="13.0" fill="#56687d" font-weight="900" text-anchor="middle"><tspan x="731.0" dy="0.0">Feedback Sources (Evaluator Signals)</tspan></text>
<rect x="458.7" y="621.0" width="26.0" height="29.0" rx="3.0" fill="none" stroke="#56687d" stroke-width="1.6"/>
<path d="M 463.7 628.0 l 3 3 l 5 -6" stroke="#56687d" stroke-width="1.4" fill="none"/>
<line x1="474.7" y1="629.0" x2="481.7" y2="629.0" stroke="#56687d" stroke-width="1.2" fill="none"/>
<path d="M 463.7 636.0 l 3 3 l 5 -6" stroke="#56687d" stroke-width="1.4" fill="none"/>
<line x1="474.7" y1="637.0" x2="481.7" y2="637.0" stroke="#56687d" stroke-width="1.2" fill="none"/>
<path d="M 463.7 644.0 l 3 3 l 5 -6" stroke="#56687d" stroke-width="1.4" fill="none"/>
<line x1="474.7" y1="645.0" x2="481.7" y2="645.0" stroke="#56687d" stroke-width="1.2" fill="none"/>
<text x="471.7" y="674.0" font-size="7.3" fill="#111" font-weight="400" text-anchor="middle"><tspan x="471.7" dy="0.0">Correctness</tspan></text>
<line x1="496.7" y1="635.0" x2="547.0" y2="635.0" stroke="#56687d" stroke-width="1.6" fill="none" marker-end="url(#arrow-gray)"/>
<circle cx="575.0" cy="635.0" r="13.7" fill="none" stroke="#56687d" stroke-width="1.6"/>
<line x1="575.0" y1="635.0" x2="575.0" y2="627.8" stroke="#56687d" stroke-width="1.4" fill="none"/>
<line x1="575.0" y1="635.0" x2="581.5" y2="637.9" stroke="#56687d" stroke-width="1.4" fill="none"/>
<line x1="585.0" y1="635.0" x2="587.0" y2="635.0" stroke="#56687d" stroke-width="1.0" fill="none"/>
<line x1="582.1" y1="642.1" x2="583.5" y2="643.5" stroke="#56687d" stroke-width="1.0" fill="none"/>
<line x1="575.0" y1="645.0" x2="575.0" y2="647.0" stroke="#56687d" stroke-width="1.0" fill="none"/>
<line x1="567.9" y1="642.1" x2="566.5" y2="643.5" stroke="#56687d" stroke-width="1.0" fill="none"/>
<line x1="565.0" y1="635.0" x2="563.0" y2="635.0" stroke="#56687d" stroke-width="1.0" fill="none"/>
<line x1="567.9" y1="627.9" x2="566.5" y2="626.5" stroke="#56687d" stroke-width="1.0" fill="none"/>
<line x1="575.0" y1="625.0" x2="575.0" y2="623.0" stroke="#56687d" stroke-width="1.0" fill="none"/>
<line x1="582.1" y1="627.9" x2="583.5" y2="626.5" stroke="#56687d" stroke-width="1.0" fill="none"/>
<text x="575.0" y="674.0" font-size="7.3" fill="#111" font-weight="400" text-anchor="middle"><tspan x="575.0" dy="0.0">Performance</tspan></text>
<line x1="600.0" y1="635.0" x2="650.3" y2="635.0" stroke="#56687d" stroke-width="1.6" fill="none" marker-end="url(#arrow-gray)"/>
<line x1="678.3" y1="623.0" x2="667.3" y2="645.0" stroke="#56687d" stroke-width="1.2" fill="none"/>
<line x1="678.3" y1="623.0" x2="689.3" y2="645.0" stroke="#56687d" stroke-width="1.2" fill="none"/>
<line x1="667.3" y1="645.0" x2="689.3" y2="645.0" stroke="#56687d" stroke-width="1.2" fill="none"/>
<circle cx="678.3" cy="623.0" r="4.7" fill="#fff" stroke="#56687d" stroke-width="1.4"/>
<circle cx="667.3" cy="645.0" r="4.7" fill="#fff" stroke="#56687d" stroke-width="1.4"/>
<circle cx="689.3" cy="645.0" r="4.7" fill="#fff" stroke="#56687d" stroke-width="1.4"/>
<text x="678.3" y="674.0" font-size="7.3" fill="#111" font-weight="400" text-anchor="middle"><tspan x="678.3" dy="0.0">Synthesis</tspan><tspan x="678.3" dy="8.4">complexity</tspan></text>
<line x1="703.3" y1="635.0" x2="753.7" y2="635.0" stroke="#56687d" stroke-width="1.6" fill="none" marker-end="url(#arrow-gray)"/>
<path d="M 781.7 620.0 L 786.7 633.0 L 796.7 635.0 L 786.7 637.0 L 781.7 650.0 L 776.7 637.0 L 766.7 635.0 L 776.7 633.0 Z" stroke="#56687d" stroke-width="1.2" fill="#fffaf0"/>
<text x="781.7" y="674.0" font-size="7.3" fill="#111" font-weight="400" text-anchor="middle"><tspan x="781.7" dy="0.0">Interpretability</tspan></text>
<line x1="806.7" y1="635.0" x2="857.0" y2="635.0" stroke="#56687d" stroke-width="1.6" fill="none" marker-end="url(#arrow-gray)"/>
<rect x="872.0" y="621.0" width="26.0" height="29.0" rx="3.0" fill="none" stroke="#56687d" stroke-width="1.6"/>
<path d="M 877.0 628.0 l 3 3 l 5 -6" stroke="#56687d" stroke-width="1.4" fill="none"/>
<line x1="888.0" y1="629.0" x2="895.0" y2="629.0" stroke="#56687d" stroke-width="1.2" fill="none"/>
<path d="M 877.0 636.0 l 3 3 l 5 -6" stroke="#56687d" stroke-width="1.4" fill="none"/>
<line x1="888.0" y1="637.0" x2="895.0" y2="637.0" stroke="#56687d" stroke-width="1.2" fill="none"/>
<path d="M 877.0 644.0 l 3 3 l 5 -6" stroke="#56687d" stroke-width="1.4" fill="none"/>
<line x1="888.0" y1="645.0" x2="895.0" y2="645.0" stroke="#56687d" stroke-width="1.2" fill="none"/>
<text x="885.0" y="674.0" font-size="7.3" fill="#111" font-weight="400" text-anchor="middle"><tspan x="885.0" dy="0.0">Safety</tspan></text>
<line x1="910.0" y1="635.0" x2="960.3" y2="635.0" stroke="#56687d" stroke-width="1.6" fill="none" marker-end="url(#arrow-gray)"/>
<ellipse cx="988.3" cy="625.0" rx="13.7" ry="5.0" fill="#eef3fb" stroke="#56687d" stroke-width="1.2"/>
<rect x="974.7" y="625.0" width="27.4" height="22.0" rx="0.0" fill="#eef3fb" stroke="#56687d" stroke-width="1.2"/>
<ellipse cx="988.3" cy="625.0" rx="13.7" ry="5.0" fill="none" stroke="#56687d" stroke-width="1.2"/>
<ellipse cx="988.3" cy="634.3" rx="13.7" ry="5.0" fill="none" stroke="#56687d" stroke-width="1.2"/>
<ellipse cx="988.3" cy="647.0" rx="13.7" ry="5.0" fill="none" stroke="#56687d" stroke-width="1.2"/>
<text x="988.3" y="674.0" font-size="7.3" fill="#111" font-weight="400" text-anchor="middle"><tspan x="988.3" dy="0.0">Reuse</tspan><tspan x="988.3" dy="8.4">frequency</tspan></text>
<path d="M 632 552 V 585" stroke="#1a63c7" stroke-width="1.1" fill="none" stroke-dasharray="2 4" marker-end="url(#arrow-blue)"/>
<path d="M 739 552 V 585" stroke="#1a63c7" stroke-width="1.1" fill="none" stroke-dasharray="2 4" marker-end="url(#arrow-blue)"/>
<path d="M 843 552 V 585" stroke="#1a63c7" stroke-width="1.1" fill="none" stroke-dasharray="2 4" marker-end="url(#arrow-blue)"/>
<rect x="29.0" y="432.0" width="337.0" height="303.0" rx="7.0" fill="#ffffff" stroke="#f06b00" stroke-width="1.0"/>
<rect x="29.0" y="432.0" width="337.0" height="27.0" rx="7.0" fill="#fff5e6" stroke="#f06b00" stroke-width="1.0"/>
<line x1="29.0" y1="459.0" x2="366.0" y2="459.0" stroke="#f06b00" stroke-width="1.0" fill="none"/>
<text x="197.5" y="446.0" font-size="9.2" fill="#f06b00" font-weight="900" text-anchor="middle"><tspan x="197.5" dy="0.0">4. Skill Libraries above APIs /</tspan><tspan x="197.5" dy="9.7">Controllers</tspan></text>
<rect x="44.0" y="471.0" width="311.0" height="33.0" rx="4.0" fill="#fffaf1" stroke="#c9d8e8" stroke-width="0.9"/>
<text x="53.0" y="485.0" font-size="8.3" fill="#071225" font-weight="900" text-anchor="start"><tspan x="53.0" dy="0.0">SayCan</tspan></text>
<text x="53.0" y="502.0" font-size="7.2" fill="#111" font-weight="400" text-anchor="start"><tspan x="53.0" dy="0.0">connects LLM semantics with low-level robot</tspan><tspan x="53.0" dy="8.5">skills</tspan></text>
<rect x="44.0" y="508.0" width="311.0" height="33.0" rx="4.0" fill="#fffaf1" stroke="#c9d8e8" stroke-width="0.9"/>
<text x="53.0" y="522.0" font-size="8.3" fill="#071225" font-weight="900" text-anchor="start"><tspan x="53.0" dy="0.0">Code as Policies</tspan></text>
<text x="53.0" y="539.0" font-size="7.2" fill="#111" font-weight="400" text-anchor="start"><tspan x="53.0" dy="0.0">LLM generates code policies over API primitives</tspan></text>
<rect x="44.0" y="545.0" width="311.0" height="33.0" rx="4.0" fill="#fffaf1" stroke="#c9d8e8" stroke-width="0.9"/>
<text x="53.0" y="559.0" font-size="8.3" fill="#071225" font-weight="900" text-anchor="start"><tspan x="53.0" dy="0.0">ProgPrompt</tspan></text>
<text x="53.0" y="576.0" font-size="7.2" fill="#111" font-weight="400" text-anchor="start"><tspan x="53.0" dy="0.0">structured prompts with available actions</tspan></text>
<rect x="44.0" y="582.0" width="311.0" height="33.0" rx="4.0" fill="#fffaf1" stroke="#c9d8e8" stroke-width="0.9"/>
<text x="53.0" y="596.0" font-size="8.3" fill="#071225" font-weight="900" text-anchor="start"><tspan x="53.0" dy="0.0">Language to Rewards</tspan></text>
<text x="53.0" y="613.0" font-size="7.2" fill="#111" font-weight="400" text-anchor="start"><tspan x="53.0" dy="0.0">LLM maps instructions to reward functions</tspan></text>
<rect x="44.0" y="619.0" width="311.0" height="33.0" rx="4.0" fill="#fffaf1" stroke="#c9d8e8" stroke-width="0.9"/>
<text x="53.0" y="633.0" font-size="8.3" fill="#071225" font-weight="900" text-anchor="start"><tspan x="53.0" dy="0.0">Eureka</tspan></text>
<text x="53.0" y="650.0" font-size="7.2" fill="#111" font-weight="400" text-anchor="start"><tspan x="53.0" dy="0.0">evolutionary reward-program search</tspan></text>
<rect x="44.0" y="656.0" width="311.0" height="33.0" rx="4.0" fill="#fffaf1" stroke="#c9d8e8" stroke-width="0.9"/>
<text x="53.0" y="670.0" font-size="8.3" fill="#071225" font-weight="900" text-anchor="start"><tspan x="53.0" dy="0.0">Voyager</tspan></text>
<text x="53.0" y="687.0" font-size="7.2" fill="#111" font-weight="400" text-anchor="start"><tspan x="53.0" dy="0.0">growing skill library and autocurriculum</tspan></text>
<rect x="44.0" y="693.0" width="311.0" height="33.0" rx="4.0" fill="#fffaf1" stroke="#c9d8e8" stroke-width="0.9"/>
<text x="53.0" y="707.0" font-size="8.3" fill="#071225" font-weight="900" text-anchor="start"><tspan x="53.0" dy="0.0">LRLL / HASP / CODESKILL</tspan></text>
<text x="53.0" y="724.0" font-size="7.2" fill="#111" font-weight="400" text-anchor="start"><tspan x="53.0" dy="0.0">self-evolving libraries over agent and coder</tspan><tspan x="53.0" dy="8.5">skills</tspan></text>
<rect x="1084.0" y="440.0" width="352.0" height="304.0" rx="7.0" fill="#ffffff" stroke="#6b37b2" stroke-width="1.0"/>
<rect x="1084.0" y="440.0" width="352.0" height="27.0" rx="7.0" fill="#f6efff" stroke="#6b37b2" stroke-width="1.0"/>
<line x1="1084.0" y1="467.0" x2="1436.0" y2="467.0" stroke="#6b37b2" stroke-width="1.0" fill="none"/>
<text x="1260.0" y="454.0" font-size="9.2" fill="#6b37b2" font-weight="900" text-anchor="middle"><tspan x="1260.0" dy="0.0">5. Compiler and IR Platforms</tspan><tspan x="1260.0" dy="9.7">for New Models</tspan></text>
<rect x="1094.0" y="479.0" width="331.0" height="33.0" rx="4.0" fill="#fbf7ff" stroke="#d3b9ec" stroke-width="0.9"/>
<text x="1103.0" y="493.0" font-size="8.3" fill="#071225" font-weight="900" text-anchor="start"><tspan x="1103.0" dy="0.0">MLIR</tspan></text>
<text x="1103.0" y="510.0" font-size="7.2" fill="#111" font-weight="400" text-anchor="start"><tspan x="1103.0" dy="0.0">dialects, multi-level abstractions, progressive</tspan><tspan x="1103.0" dy="8.5">lowering</tspan></text>
<rect x="1094.0" y="516.0" width="331.0" height="33.0" rx="4.0" fill="#fbf7ff" stroke="#d3b9ec" stroke-width="0.9"/>
<text x="1103.0" y="530.0" font-size="8.3" fill="#071225" font-weight="900" text-anchor="start"><tspan x="1103.0" dy="0.0">Composable MLIR</tspan></text>
<text x="1103.0" y="547.0" font-size="7.2" fill="#111" font-weight="400" text-anchor="start"><tspan x="1103.0" dy="0.0">modular code generation and structured lowering</tspan></text>
<rect x="1094.0" y="553.0" width="331.0" height="33.0" rx="4.0" fill="#fbf7ff" stroke="#d3b9ec" stroke-width="0.9"/>
<text x="1103.0" y="567.0" font-size="8.3" fill="#071225" font-weight="900" text-anchor="start"><tspan x="1103.0" dy="0.0">MimiR</tspan></text>
<text x="1103.0" y="584.0" font-size="7.2" fill="#111" font-weight="400" text-anchor="start"><tspan x="1103.0" dy="0.0">extensible type-safe IR, typed axioms</tspan></text>
<rect x="1094.0" y="590.0" width="331.0" height="33.0" rx="4.0" fill="#fbf7ff" stroke="#d3b9ec" stroke-width="0.9"/>
<text x="1103.0" y="604.0" font-size="8.3" fill="#071225" font-weight="900" text-anchor="start"><tspan x="1103.0" dy="0.0">The Co-Compiler</tspan></text>
<text x="1103.0" y="621.0" font-size="7.2" fill="#111" font-weight="400" text-anchor="start"><tspan x="1103.0" dy="0.0">relational compilation from raw code to DSL</tspan></text>
<rect x="1094.0" y="627.0" width="331.0" height="33.0" rx="4.0" fill="#fbf7ff" stroke="#d3b9ec" stroke-width="0.9"/>
<text x="1103.0" y="641.0" font-size="8.3" fill="#071225" font-weight="900" text-anchor="start"><tspan x="1103.0" dy="0.0">SNN-MLIR</tspan></text>
<text x="1103.0" y="658.0" font-size="7.2" fill="#111" font-weight="400" text-anchor="start"><tspan x="1103.0" dy="0.0">domain dialect and bridge to bare-metal C</tspan></text>
<rect x="1094.0" y="664.0" width="331.0" height="33.0" rx="4.0" fill="#fbf7ff" stroke="#d3b9ec" stroke-width="0.9"/>
<text x="1103.0" y="678.0" font-size="8.3" fill="#071225" font-weight="900" text-anchor="start"><tspan x="1103.0" dy="0.0">AscendCraft</tspan></text>
<text x="1103.0" y="695.0" font-size="7.2" fill="#111" font-weight="400" text-anchor="start"><tspan x="1103.0" dy="0.0">Ascend-specific DSL semantics and lowering</tspan></text>
<rect x="1094.0" y="701.0" width="331.0" height="33.0" rx="4.0" fill="#fbf7ff" stroke="#d3b9ec" stroke-width="0.9"/>
<text x="1103.0" y="715.0" font-size="8.3" fill="#071225" font-weight="900" text-anchor="start"><tspan x="1103.0" dy="0.0">AscendOptimizer</tspan></text>
<text x="1103.0" y="732.0" font-size="7.2" fill="#111" font-weight="400" text-anchor="start"><tspan x="1103.0" dy="0.0">evolutionary AscendC optimization and motif bank</tspan></text>
<rect x="32.0" y="744.0" width="491.0" height="168.0" rx="7.0" fill="#ffffff" stroke="#c78a00" stroke-width="1.0"/>
<rect x="32.0" y="744.0" width="491.0" height="27.0" rx="7.0" fill="#fff9db" stroke="#c78a00" stroke-width="1.0"/>
<line x1="32.0" y1="771.0" x2="523.0" y2="771.0" stroke="#c78a00" stroke-width="1.0" fill="none"/>
<text x="277.5" y="763.0" font-size="13.0" fill="#c78a00" font-weight="900" text-anchor="middle"><tspan x="277.5" dy="0.0">3. Evolutionary Program Discovery</tspan></text>
<rect x="43.0" y="781.0" width="232.0" height="34.0" rx="3.0" fill="#fffef4" stroke="#e8d172" stroke-width="0.8"/>
<text x="49.0" y="792.0" font-size="7.9" fill="#111" font-weight="900" text-anchor="start">Evolution through Large Models</text>
<text x="49.0" y="805.0" font-size="6.5" fill="#111" font-weight="400" text-anchor="start"><tspan x="49.0" dy="0.0">LLM as a genetic-programming operator</tspan></text>
<rect x="285.0" y="781.0" width="232.0" height="34.0" rx="3.0" fill="#fffef4" stroke="#e8d172" stroke-width="0.8"/>
<text x="291.0" y="792.0" font-size="7.9" fill="#111" font-weight="900" text-anchor="start">Evolving Code with LLM</text>
<text x="291.0" y="805.0" font-size="6.5" fill="#111" font-weight="400" text-anchor="start"><tspan x="291.0" dy="0.0">LLM-based genetic programming</tspan></text>
<rect x="43.0" y="819.0" width="232.0" height="34.0" rx="3.0" fill="#fffef4" stroke="#e8d172" stroke-width="0.8"/>
<text x="49.0" y="830.0" font-size="7.9" fill="#111" font-weight="900" text-anchor="start">FunSearch</text>
<text x="49.0" y="843.0" font-size="6.5" fill="#111" font-weight="400" text-anchor="start"><tspan x="49.0" dy="0.0">search for programs that generate</tspan><tspan x="49.0" dy="7.5">solutions</tspan></text>
<rect x="285.0" y="819.0" width="232.0" height="34.0" rx="3.0" fill="#fffef4" stroke="#e8d172" stroke-width="0.8"/>
<text x="291.0" y="830.0" font-size="7.9" fill="#111" font-weight="900" text-anchor="start">STOP</text>
<text x="291.0" y="843.0" font-size="6.5" fill="#111" font-weight="400" text-anchor="start"><tspan x="291.0" dy="0.0">self-taught optimizer optimizing LLM</tspan><tspan x="291.0" dy="7.5">scaffolds</tspan></text>
<rect x="43.0" y="857.0" width="232.0" height="34.0" rx="3.0" fill="#fffef4" stroke="#e8d172" stroke-width="0.8"/>
<text x="49.0" y="868.0" font-size="7.9" fill="#111" font-weight="900" text-anchor="start">LLaMEA / LLM as Evolutionary Optimizer</text>
<text x="49.0" y="881.0" font-size="6.5" fill="#111" font-weight="400" text-anchor="start"><tspan x="49.0" dy="0.0">LLM generates metaheuristics and</tspan><tspan x="49.0" dy="7.5">algorithms</tspan></text>
<rect x="285.0" y="857.0" width="232.0" height="34.0" rx="3.0" fill="#fffef4" stroke="#e8d172" stroke-width="0.8"/>
<text x="291.0" y="868.0" font-size="7.9" fill="#111" font-weight="900" text-anchor="start">AlphaEvolve / CodeEvolve</text>
<text x="291.0" y="881.0" font-size="6.5" fill="#111" font-weight="400" text-anchor="start"><tspan x="291.0" dy="0.0">scalable code evolution with evaluator</tspan><tspan x="291.0" dy="7.5">feedback</tspan></text>
<rect x="544.0" y="742.0" width="306.0" height="154.0" rx="7.0" fill="#ffffff" stroke="#dd3f3f" stroke-width="1.0"/>
<rect x="544.0" y="742.0" width="306.0" height="27.0" rx="7.0" fill="#fff1f1" stroke="#dd3f3f" stroke-width="1.0"/>
<line x1="544.0" y1="769.0" x2="850.0" y2="769.0" stroke="#dd3f3f" stroke-width="1.0" fill="none"/>
<text x="697.0" y="761.0" font-size="13.0" fill="#dd3f3f" font-weight="900" text-anchor="middle"><tspan x="697.0" dy="0.0">6. Search at ISA / Hardware Level</tspan></text>
<rect x="557.0" y="779.0" width="279.0" height="20.0" rx="4.0" fill="#fff8f8" stroke="#c9d8e8" stroke-width="0.9"/>
<text x="566.0" y="793.0" font-size="8.3" fill="#071225" font-weight="900" text-anchor="start"><tspan x="566.0" dy="0.0">STOKE</tspan></text>
<text x="566.0" y="810.0" font-size="7.2" fill="#111" font-weight="400" text-anchor="start"><tspan x="566.0" dy="0.0">stochastic superoptimization of instruction</tspan><tspan x="566.0" dy="8.5">sequences</tspan></text>
<rect x="557.0" y="803.0" width="279.0" height="20.0" rx="4.0" fill="#fff8f8" stroke="#c9d8e8" stroke-width="0.9"/>
<text x="566.0" y="817.0" font-size="8.3" fill="#071225" font-weight="900" text-anchor="start"><tspan x="566.0" dy="0.0">AlphaDev</tspan></text>
<text x="566.0" y="834.0" font-size="7.2" fill="#111" font-weight="400" text-anchor="start"><tspan x="566.0" dy="0.0">discovers new algorithms at assembly/IR level</tspan></text>
<rect x="557.0" y="827.0" width="279.0" height="20.0" rx="4.0" fill="#fff8f8" stroke="#c9d8e8" stroke-width="0.9"/>
<text x="566.0" y="841.0" font-size="8.3" fill="#071225" font-weight="900" text-anchor="start"><tspan x="566.0" dy="0.0">AlphaTensor</tspan></text>
<text x="566.0" y="858.0" font-size="7.2" fill="#111" font-weight="400" text-anchor="start"><tspan x="566.0" dy="0.0">search for matrix multiplication algorithms</tspan></text>
<rect x="557.0" y="851.0" width="279.0" height="20.0" rx="4.0" fill="#fff8f8" stroke="#c9d8e8" stroke-width="0.9"/>
<text x="566.0" y="865.0" font-size="8.3" fill="#071225" font-weight="900" text-anchor="start"><tspan x="566.0" dy="0.0">ARISE</tspan></text>
<text x="566.0" y="882.0" font-size="7.2" fill="#111" font-weight="400" text-anchor="start"><tspan x="566.0" dy="0.0">automatic extension generation for RISC-V</tspan></text>
<rect x="557.0" y="875.0" width="279.0" height="20.0" rx="4.0" fill="#fff8f8" stroke="#c9d8e8" stroke-width="0.9"/>
<text x="566.0" y="889.0" font-size="8.3" fill="#071225" font-weight="900" text-anchor="start"><tspan x="566.0" dy="0.0">EDA-aware LLM</tspan></text>
<text x="566.0" y="906.0" font-size="7.2" fill="#111" font-weight="400" text-anchor="start"><tspan x="566.0" dy="0.0">Verilog/RTL/EDA artifact verification</tspan></text>
<rect x="893.0" y="744.0" width="356.0" height="151.0" rx="7.0" fill="#ffffff" stroke="#0f8b94" stroke-width="1.0"/>
<rect x="893.0" y="744.0" width="356.0" height="27.0" rx="7.0" fill="#eaf9fa" stroke="#0f8b94" stroke-width="1.0"/>
<line x1="893.0" y1="771.0" x2="1249.0" y2="771.0" stroke="#0f8b94" stroke-width="1.0" fill="none"/>
<text x="1071.0" y="758.0" font-size="9.2" fill="#0f8b94" font-weight="900" text-anchor="middle"><tspan x="1071.0" dy="0.0">7. Agentic System Design</tspan><tspan x="1071.0" dy="9.7">as Model Evolution</tspan></text>
<rect x="907.0" y="781.0" width="326.0" height="23.0" rx="4.0" fill="#f4ffff" stroke="#c9d8e8" stroke-width="0.9"/>
<text x="916.0" y="795.0" font-size="8.3" fill="#071225" font-weight="900" text-anchor="start"><tspan x="916.0" dy="0.0">ADAS</tspan></text>
<text x="916.0" y="812.0" font-size="7.2" fill="#111" font-weight="400" text-anchor="start"><tspan x="916.0" dy="0.0">search and compose new agents and composition</tspan><tspan x="916.0" dy="8.5">methods</tspan></text>
<rect x="907.0" y="808.0" width="326.0" height="23.0" rx="4.0" fill="#f4ffff" stroke="#c9d8e8" stroke-width="0.9"/>
<text x="916.0" y="822.0" font-size="8.3" fill="#071225" font-weight="900" text-anchor="start"><tspan x="916.0" dy="0.0">GPTSwarm / Agents as Graphs</tspan></text>
<text x="916.0" y="839.0" font-size="7.2" fill="#111" font-weight="400" text-anchor="start"><tspan x="916.0" dy="0.0">optimize graphs of agents and prompts</tspan></text>
<rect x="907.0" y="835.0" width="326.0" height="23.0" rx="4.0" fill="#f4ffff" stroke="#c9d8e8" stroke-width="0.9"/>
<text x="916.0" y="849.0" font-size="8.3" fill="#071225" font-weight="900" text-anchor="start"><tspan x="916.0" dy="0.0">Memento-Skills</tspan></text>
<text x="916.0" y="866.0" font-size="7.2" fill="#111" font-weight="400" text-anchor="start"><tspan x="916.0" dy="0.0">agents design agents; growing skill library</tspan></text>
<rect x="907.0" y="862.0" width="326.0" height="23.0" rx="4.0" fill="#f4ffff" stroke="#c9d8e8" stroke-width="0.9"/>
<text x="916.0" y="876.0" font-size="8.3" fill="#071225" font-weight="900" text-anchor="start"><tspan x="916.0" dy="0.0">MaMa</tspan></text>
<text x="916.0" y="893.0" font-size="7.2" fill="#111" font-weight="400" text-anchor="start"><tspan x="916.0" dy="0.0">safe design of agentic systems</tspan></text>
<rect x="1289.0" y="724.0" width="220.0" height="175.0" rx="7.0" fill="#ffffff" stroke="#9ba7b4" stroke-width="1.0"/>
<text x="1307.0" y="744.0" font-size="8.6" fill="#111" font-weight="900" text-anchor="start">Application to Ascend / AI accelerators</text>
<text x="1310.0" y="765.0" font-size="7.4" fill="#111" font-weight="400" text-anchor="start"><tspan x="1310.0" dy="0.0">• Corpus: AscendC kernels, host</tspan><tspan x="1310.0" dy="10.0">  tiling, profiles, compilation</tspan><tspan x="1310.0" dy="10.0">  errors</tspan></text>
<text x="1310.0" y="795.0" font-size="7.4" fill="#111" font-weight="400" text-anchor="start"><tspan x="1310.0" dy="0.0">• Extract optimization motifs:</tspan><tspan x="1310.0" dy="10.0">  double-buffering, pipeline</tspan><tspan x="1310.0" dy="10.0">  overlap, core split, tiling,</tspan><tspan x="1310.0" dy="10.0">  UB/L1/L0 reuse</tspan></text>
<text x="1310.0" y="835.0" font-size="7.4" fill="#111" font-weight="400" text-anchor="start"><tspan x="1310.0" dy="0.0">• Form DSL/IR constructions for</tspan><tspan x="1310.0" dy="10.0">  these motifs</tspan></text>
<text x="1310.0" y="855.0" font-size="7.4" fill="#111" font-weight="400" text-anchor="start"><tspan x="1310.0" dy="0.0">• Lower to AscendC / GE</tspan></text>
<text x="1310.0" y="865.0" font-size="7.4" fill="#111" font-weight="400" text-anchor="start"><tspan x="1310.0" dy="0.0">• Evolve and select by latency,</tspan><tspan x="1310.0" dy="10.0">  bandwidth, UB usage</tspan></text>
<rect x="1289.0" y="904.0" width="220.0" height="104.0" rx="6.0" fill="#ffffff" stroke="#b7c0ca" stroke-width="1.0"/>
<text x="1310.0" y="923.0" font-size="8.8" fill="#111" font-weight="900" text-anchor="start">Legend</text>
<rect x="1310.0" y="931.0" width="15.0" height="8.0" rx="2.0" fill="#eaf2ff" stroke="#888" stroke-width="0.7"/>
<text x="1332.0" y="939.0" font-size="7.2" fill="#111" font-weight="400" text-anchor="start">1,2 - induction / DSL</text>
<rect x="1310.0" y="942.0" width="15.0" height="8.0" rx="2.0" fill="#fff9db" stroke="#888" stroke-width="0.7"/>
<text x="1332.0" y="950.0" font-size="7.2" fill="#111" font-weight="400" text-anchor="start">3 - evolutionary search</text>
<rect x="1310.0" y="953.0" width="15.0" height="8.0" rx="2.0" fill="#fff5e6" stroke="#888" stroke-width="0.7"/>
<text x="1332.0" y="961.0" font-size="7.2" fill="#111" font-weight="400" text-anchor="start">4 - API skills</text>
<rect x="1310.0" y="964.0" width="15.0" height="8.0" rx="2.0" fill="#f6efff" stroke="#888" stroke-width="0.7"/>
<text x="1332.0" y="972.0" font-size="7.2" fill="#111" font-weight="400" text-anchor="start">5 - compilers / IR</text>
<rect x="1310.0" y="975.0" width="15.0" height="8.0" rx="2.0" fill="#fff1f1" stroke="#888" stroke-width="0.7"/>
<text x="1332.0" y="983.0" font-size="7.2" fill="#111" font-weight="400" text-anchor="start">6 - ISA / hardware</text>
<rect x="1310.0" y="986.0" width="15.0" height="8.0" rx="2.0" fill="#eaf9fa" stroke="#888" stroke-width="0.7"/>
<text x="1332.0" y="994.0" font-size="7.2" fill="#111" font-weight="400" text-anchor="start">7 - agent systems</text>
<rect x="30.0" y="941.0" width="1186.0" height="72.0" rx="7.0" fill="#ffffff" stroke="#ced6df" stroke-width="1.0"/>
<text x="624.0" y="958.0" font-size="10.0" fill="#111" font-weight="900" text-anchor="middle">Key ideas connecting the directions</text>
<ellipse cx="62.5" cy="978.0" rx="9.5" ry="5.0" fill="#eef3fb" stroke="#56687d" stroke-width="1.2"/>
<rect x="53.0" y="978.0" width="19.0" height="11.0" rx="0.0" fill="#eef3fb" stroke="#56687d" stroke-width="1.2"/>
<ellipse cx="62.5" cy="978.0" rx="9.5" ry="5.0" fill="none" stroke="#56687d" stroke-width="1.2"/>
<ellipse cx="62.5" cy="982.0" rx="9.5" ry="5.0" fill="none" stroke="#56687d" stroke-width="1.2"/>
<ellipse cx="62.5" cy="989.0" rx="9.5" ry="5.0" fill="none" stroke="#56687d" stroke-width="1.2"/>
<text x="80.0" y="970.0" font-size="7.4" fill="#111" font-weight="400" text-anchor="start"><tspan x="80.0" dy="0.0">Low-level target is known;</tspan><tspan x="80.0" dy="9.0">it is the anchor for</tspan><tspan x="80.0" dy="9.0">induction.</tspan></text>
<circle cx="253.5" cy="982.5" r="9.5" fill="none" stroke="#56687d" stroke-width="1.6"/>
<line x1="253.5" y1="982.5" x2="253.5" y2="977.5" stroke="#56687d" stroke-width="1.4" fill="none"/>
<line x1="253.5" y1="982.5" x2="258.0" y2="984.5" stroke="#56687d" stroke-width="1.4" fill="none"/>
<line x1="263.5" y1="982.5" x2="265.5" y2="982.5" stroke="#56687d" stroke-width="1.0" fill="none"/>
<line x1="260.6" y1="989.6" x2="262.0" y2="991.0" stroke="#56687d" stroke-width="1.0" fill="none"/>
<line x1="253.5" y1="992.5" x2="253.5" y2="994.5" stroke="#56687d" stroke-width="1.0" fill="none"/>
<line x1="246.4" y1="989.6" x2="245.0" y2="991.0" stroke="#56687d" stroke-width="1.0" fill="none"/>
<line x1="243.5" y1="982.5" x2="241.5" y2="982.5" stroke="#56687d" stroke-width="1.0" fill="none"/>
<line x1="246.4" y1="975.4" x2="245.0" y2="974.0" stroke="#56687d" stroke-width="1.0" fill="none"/>
<line x1="253.5" y1="972.5" x2="253.5" y2="970.5" stroke="#56687d" stroke-width="1.0" fill="none"/>
<line x1="260.6" y1="975.4" x2="262.0" y2="974.0" stroke="#56687d" stroke-width="1.0" fill="none"/>
<text x="271.0" y="970.0" font-size="7.4" fill="#111" font-weight="400" text-anchor="start"><tspan x="271.0" dy="0.0">Find repeated motifs and</tspan><tspan x="271.0" dy="9.0">patterns in code/traces.</tspan></text>
<path d="M 444.5 973.0 L 449.5 980.5 L 454.0 982.5 L 449.5 984.5 L 444.5 992.0 L 439.5 984.5 L 435.0 982.5 L 439.5 980.5 Z" stroke="#56687d" stroke-width="1.2" fill="#fffaf0"/>
<text x="462.0" y="970.0" font-size="7.4" fill="#111" font-weight="400" text-anchor="start"><tspan x="462.0" dy="0.0">Propose abstractions and</tspan><tspan x="462.0" dy="9.0">validate by metrics.</tspan></text>
<line x1="635.5" y1="976.0" x2="630.0" y2="987.0" stroke="#56687d" stroke-width="1.2" fill="none"/>
<line x1="635.5" y1="976.0" x2="641.0" y2="987.0" stroke="#56687d" stroke-width="1.2" fill="none"/>
<line x1="630.0" y1="987.0" x2="641.0" y2="987.0" stroke="#56687d" stroke-width="1.2" fill="none"/>
<circle cx="635.5" cy="976.0" r="4.7" fill="#fff" stroke="#56687d" stroke-width="1.4"/>
<circle cx="630.0" cy="987.0" r="4.7" fill="#fff" stroke="#56687d" stroke-width="1.4"/>
<circle cx="641.0" cy="987.0" r="4.7" fill="#fff" stroke="#56687d" stroke-width="1.4"/>
<text x="653.0" y="970.0" font-size="7.4" fill="#111" font-weight="400" text-anchor="start"><tspan x="653.0" dy="0.0">Map useful abstractions to</tspan><tspan x="653.0" dy="9.0">first-class model</tspan><tspan x="653.0" dy="9.0">primitives.</tspan></text>
<rect x="819.0" y="974.0" width="15.0" height="18.0" rx="3.0" fill="none" stroke="#56687d" stroke-width="1.6"/>
<path d="M 824.0 981.0 l 3 3 l 5 -6" stroke="#56687d" stroke-width="1.4" fill="none"/>
<line x1="835.0" y1="982.0" x2="831.0" y2="982.0" stroke="#56687d" stroke-width="1.2" fill="none"/>
<path d="M 824.0 989.0 l 3 3 l 5 -6" stroke="#56687d" stroke-width="1.4" fill="none"/>
<line x1="835.0" y1="990.0" x2="831.0" y2="990.0" stroke="#56687d" stroke-width="1.2" fill="none"/>
<path d="M 824.0 997.0 l 3 3 l 5 -6" stroke="#56687d" stroke-width="1.4" fill="none"/>
<line x1="835.0" y1="998.0" x2="831.0" y2="998.0" stroke="#56687d" stroke-width="1.2" fill="none"/>
<text x="844.0" y="970.0" font-size="7.4" fill="#111" font-weight="400" text-anchor="start"><tspan x="844.0" dy="0.0">Provide correct lowering,</tspan><tspan x="844.0" dy="9.0">verification, docs, and</tspan><tspan x="844.0" dy="9.0">tooling.</tspan></text>
<line x1="1026.5" y1="982.5" x2="1030.5" y2="982.5" stroke="#56687d" stroke-width="1.6" fill="none"/>
<line x1="1023.9" y1="988.9" x2="1026.7" y2="991.7" stroke="#56687d" stroke-width="1.6" fill="none"/>
<line x1="1017.5" y1="991.5" x2="1017.5" y2="995.5" stroke="#56687d" stroke-width="1.6" fill="none"/>
<line x1="1011.1" y1="988.9" x2="1008.3" y2="991.7" stroke="#56687d" stroke-width="1.6" fill="none"/>
<line x1="1008.5" y1="982.5" x2="1004.5" y2="982.5" stroke="#56687d" stroke-width="1.6" fill="none"/>
<line x1="1011.1" y1="976.1" x2="1008.3" y2="973.3" stroke="#56687d" stroke-width="1.6" fill="none"/>
<line x1="1017.5" y1="973.5" x2="1017.5" y2="969.5" stroke="#56687d" stroke-width="1.6" fill="none"/>
<line x1="1023.9" y1="976.1" x2="1026.7" y2="973.3" stroke="#56687d" stroke-width="1.6" fill="none"/>
<circle cx="1017.5" cy="982.5" r="9.5" fill="none" stroke="#56687d" stroke-width="1.6"/>
<circle cx="1017.5" cy="982.5" r="3.4" fill="none" stroke="#56687d" stroke-width="1.4"/>
<text x="1035.0" y="970.0" font-size="7.4" fill="#111" font-weight="400" text-anchor="start"><tspan x="1035.0" dy="0.0">Evolve the model by</tspan><tspan x="1035.0" dy="9.0">safety, clarity,</tspan><tspan x="1035.0" dy="9.0">productivity, and</tspan><tspan x="1035.0" dy="9.0">performance.</tspan></text>
  </g>
</svg>
